<svg width="176" height="176" viewBox="0 0 176 176" fill="none" xmlns="http://www.w3.org/2000/svg">
<g filter="url(#filter0_d_502_4)">
<circle cx="88" cy="88" r="50" fill="url(#paint0_linear_502_4)"/>
</g>
<path d="M104.756 73.0251C104.756 71.9224 104.326 70.8844 103.546 70.1045L99.6516 66.2103C98.8826 65.4411 97.7908 65 96.7043 65H96.4677V73.2617H104.756L104.756 73.0251Z" fill="white"/>
<path d="M95.1466 93.4145C95.4101 92.6144 95.87 91.8695 96.4697 91.2657L105.793 81.9802V76.0156H96.1174C95.3563 76.0156 94.7852 75.3998 94.7852 74.6387V65H74.1309C71.853 65 70 66.853 70 69.1309V107.869C70 110.147 71.853 112 74.1309 112H101.625C103.903 112 105.793 110.147 105.793 107.869V97.5924L104.28 99.0688C103.667 99.6766 102.948 100.119 102.139 100.389L97.7607 101.851L97.0937 101.887C95.991 101.887 94.9475 101.351 94.2995 100.453C93.6567 99.5584 93.4819 98.3993 93.8315 97.3518L95.1466 93.4145ZM76.8848 89.7852H90.6096C91.3707 89.7852 91.9865 90.401 91.9865 91.1621C91.9865 91.9232 91.3707 92.5391 90.6096 92.5391H76.8848C76.1237 92.5391 75.5078 91.9232 75.5078 91.1621C75.5078 90.401 76.1237 89.7852 76.8848 89.7852ZM75.5078 85.6543C75.5078 84.8932 76.1237 84.2773 76.8848 84.2773H90.6096C91.3707 84.2773 91.9865 84.8932 91.9865 85.6543C91.9865 86.4154 91.3707 87.0312 90.6096 87.0312H76.8848C76.1237 87.0312 75.5078 86.4154 75.5078 85.6543ZM75.5078 96.6699C75.5078 95.9088 76.1237 95.293 76.8848 95.293H90.6096C91.3707 95.293 91.9865 95.9088 91.9865 96.6699C91.9865 97.431 91.3707 98.0469 90.6096 98.0469H76.8848C76.1237 98.0469 75.5078 97.431 75.5078 96.6699ZM96.1174 103.555C96.8785 103.555 97.4944 104.171 97.4944 104.932C97.4944 105.693 96.8786 106.309 96.1174 106.309H87.8557C87.0946 106.309 86.4787 105.693 86.4787 104.932C86.4787 104.171 87.0946 103.555 87.8557 103.555H96.1174ZM76.8848 81.5234C76.1237 81.5234 75.5078 80.9076 75.5078 80.1465C75.5078 79.3854 76.1237 78.7695 76.8848 78.7695H96.1174C96.8785 78.7695 97.4944 79.3854 97.4944 80.1465C97.4944 80.9076 96.8785 81.5234 96.1174 81.5234H76.8848Z" fill="white"/>
<path d="M96.6411 94.6328L95.4431 98.2267C95.2636 98.7651 95.7759 99.2772 96.3143 99.0974L99.9061 97.8978L96.6411 94.6328Z" fill="white"/>
<path d="M107.335 83.2958L98.2667 92.3643L102.178 96.2753C104.227 94.2253 108.215 90.2366 111.246 87.2063L107.335 83.2958Z" fill="white"/>
<path d="M115.191 79.3464C114.707 78.8596 113.994 78.5812 113.238 78.5812C112.483 78.5812 111.77 78.8596 111.283 79.3477L109.282 81.3486L113.193 85.259C114.288 84.1635 115.045 83.4064 115.194 83.2579C116.269 82.1807 116.269 80.4261 115.191 79.3464Z" fill="white"/>
<path d="M115.194 83.2591C115.194 83.2591 115.194 83.259 115.194 83.2589C115.198 83.255 115.199 83.2532 115.203 83.25C115.199 83.2533 115.198 83.2551 115.194 83.2591Z" fill="white"/>
<path d="M115.202 83.25C115.206 83.2456 115.211 83.2405 115.214 83.2378C115.211 83.2405 115.206 83.2456 115.202 83.25Z" fill="white"/>
<path d="M115.214 83.2386C115.224 83.2286 115.224 83.2284 115.214 83.2386V83.2386Z" fill="white"/>
<defs>
<filter id="filter0_d_502_4" x="0" y="0" width="176" height="176" filterUnits="userSpaceOnUse" color-interpolation-filters="sRGB">
<feFlood flood-opacity="0" result="BackgroundImageFix"/>
<feColorMatrix in="SourceAlpha" type="matrix" values="0 0 0 0 0 0 0 0 0 0 0 0 0 0 0 0 0 0 127 0" result="hardAlpha"/>
<feMorphology radius="3" operator="dilate" in="SourceAlpha" result="effect1_dropShadow_502_4"/>
<feOffset/>
<feGaussianBlur stdDeviation="17.5"/>
<feComposite in2="hardAlpha" operator="out"/>
<feColorMatrix type="matrix" values="0 0 0 0 0.964706 0 0 0 0 0.537255 0 0 0 0 0.0313726 0 0 0 0.35 0"/>
<feBlend mode="normal" in2="BackgroundImageFix" result="effect1_dropShadow_502_4"/>
<feBlend mode="normal" in="SourceGraphic" in2="effect1_dropShadow_502_4" result="shape"/>
</filter>
<linearGradient id="paint0_linear_502_4" x1="42.2751" y1="45.6271" x2="139.68" y2="52.3527" gradientUnits="userSpaceOnUse">
<stop stop-color="#FF9F2E"/>
<stop offset="1" stop-color="#F48400"/>
</linearGradient>
</defs>
</svg>
